<svg t="1594911770388" class="icon" viewBox="0 0 1024 1024" version="1.1" xmlns="http://www.w3.org/2000/svg" p-id="2377" width="200" height="200"><path d="M400.896 829.44c-65.536-8.192-109.568-18.944-128.512-52.224 0 0-10.752 90.112 65.536 128.512 76.8 38.4 144.896 13.824 144.896 13.824s-15.872-81.92-81.92-90.112zM400.896 711.68c-65.536-8.192-109.568-18.944-128.512-52.224 0 0-10.752 90.112 65.536 128.512 76.8 38.4 144.896 13.824 144.896 13.824s-15.872-81.92-81.92-90.112zM400.896 585.728c-65.536-8.192-109.568-18.944-128.512-52.224 0 0-10.752 90.112 65.536 128.512 76.8 38.4 144.896 13.824 144.896 13.824s-15.872-81.92-81.92-90.112zM400.896 467.968c-44.544-5.632-78.848-12.288-102.4-26.624-1.536-2.048-2.56-4.608-3.584-6.656-12.288-28.16 6.144-65.024 10.752-93.696 1.024-5.12-7.168-7.168-8.192-2.048-4.096 24.064-16.896 54.272-14.848 80.896-4.096-14.336-6.144-30.208-5.632-47.616 1.024-26.112 7.168-52.224 10.24-78.336 3.072-24.576-0.512-48.64-4.096-73.216-0.512-5.12-9.216-5.12-8.192 0.512 4.608 31.744 6.656 60.416 1.536 92.672-4.096 27.136-8.704 53.76-7.68 81.408 0.512 7.68 1.536 14.336 3.072 21.504-0.512 7.68-7.68 91.648 65.536 128 76.8 38.4 144.896 13.824 144.896 13.824s-15.36-82.432-81.408-90.624zM578.56 829.44c-65.536 8.192-81.92 90.112-81.92 90.112s68.608 24.576 144.896-13.824c76.8-38.4 65.536-128.512 65.536-128.512-18.944 32.768-62.976 43.52-128.512 52.224zM578.56 711.68c-65.536 8.192-81.92 90.112-81.92 90.112s68.608 24.576 144.896-13.824c76.8-38.4 65.536-128.512 65.536-128.512-18.944 32.768-62.976 44.032-128.512 52.224zM578.56 585.728C513.024 593.92 496.64 675.84 496.64 675.84s68.608 24.576 144.896-13.824c76.8-38.4 65.536-128.512 65.536-128.512-18.944 32.768-62.976 44.032-128.512 52.224zM524.288 360.96c-21.504-55.808-32.256-96.768-19.968-128 7.168-9.216 13.824-17.408 18.944-29.184 12.288-31.232 5.632-66.048 2.56-98.304-0.512-5.12-8.704-5.12-8.192 0.512 3.072 33.792 8.704 67.072-4.096 99.84-3.584 8.704-9.728 15.872-15.872 23.04-23.04 12.8-72.704 47.104-70.656 113.152 2.56 85.504 56.32 134.144 56.32 134.144s64.512-53.248 40.96-115.2zM719.872 189.952c-5.632 16.384-13.312 33.28-14.848 50.688-2.048 25.088 1.536 51.2 3.584 76.288 2.56 31.232 3.072 67.584-7.68 98.304 6.144-29.696-8.704-61.952-10.752-91.136-0.512-5.12-8.704-5.12-8.192 0.512 2.56 30.208 15.36 58.88 10.24 89.6-1.536 10.24-6.144 19.456-12.288 27.648-23.552 13.824-57.856 20.48-101.376 26.112C513.024 476.16 496.64 558.08 496.64 558.08s68.608 24.576 144.896-13.824c67.584-33.792 67.072-108.032 66.048-124.928 6.656-17.92 9.728-37.376 10.752-56.32 1.536-28.16-2.56-56.832-4.608-84.992-2.56-31.744 4.096-56.832 14.336-86.528 1.536-4.608-6.656-6.656-8.192-1.536z" fill="#4C4C4C" p-id="2378"></path></svg>